<?xml version="1.0" standalone="no"?>
<!DOCTYPE svg PUBLIC "-//W3C//DTD SVG 20010904//EN"
 "http://www.w3.org/TR/2001/REC-SVG-20010904/DTD/svg10.dtd">
<svg version="1.0" xmlns="http://www.w3.org/2000/svg"
 width="122.000000pt" height="108.000000pt" viewBox="0 0 122.000000 108.000000"
 preserveAspectRatio="xMidYMid meet">

<g transform="translate(0.000000,108.000000) scale(0.100000,-0.100000)"
fill="#000000" stroke="none">
<path d="M733 1044 c-73 -37 -53 -133 33 -150 21 -4 39 1 64 18 91 61 2 182
-97 132z"/>
<path d="M817 868 c-9 -7 -34 -49 -56 -94 -36 -74 -42 -81 -79 -92 -22 -7 -50
-20 -62 -30 -19 -16 -21 -22 -11 -40 15 -28 44 -28 116 0 39 15 63 31 76 51
l18 30 16 -59 c9 -32 23 -81 31 -108 10 -35 14 -108 14 -253 0 -203 0 -204 25
-228 29 -30 68 -32 95 -5 19 19 20 33 20 272 l0 252 -36 136 c-22 80 -45 144
-57 158 -23 25 -82 30 -110 10z"/>
<path d="M217 802 c-15 -17 -17 -59 -17 -400 l0 -382 205 0 205 0 0 247 0 247
-76 135 c-42 75 -83 144 -92 154 -23 26 -201 25 -225 -1z m200 -295 c4 -7 23
-19 41 -27 43 -17 72 -58 51 -71 -22 -14 -59 -11 -65 6 -12 29 -24 14 -24 -28
0 -42 1 -44 40 -56 45 -13 70 -43 70 -84 0 -46 -26 -83 -70 -101 -28 -11 -40
-22 -40 -36 0 -13 -7 -20 -20 -20 -13 0 -20 7 -20 19 0 13 -11 23 -35 31 -38
13 -75 52 -75 81 0 31 56 25 85 -8 l24 -28 1 52 c0 48 -2 52 -29 61 -47 17
-71 47 -71 91 0 47 29 87 70 96 17 4 30 13 30 21 0 18 26 18 37 1z"/>
<path d="M356 418 c-11 -15 -12 -26 -5 -40 16 -30 29 -21 29 22 0 46 -3 48
-24 18z"/>
<path d="M420 235 c0 -46 7 -54 28 -33 19 19 14 56 -8 68 -19 10 -20 8 -20
-35z"/>
</g>
</svg>
